<svg width="51" height="51" viewBox="0 0 51 51" fill="none" xmlns="http://www.w3.org/2000/svg">
<path fill-rule="evenodd" clip-rule="evenodd" d="M33.32 0C47.6 0 51 3.4 51 17.68V33.32C51 47.6 47.6 51 33.32 51H17.68C3.4 51 0 47.6 0 33.32V17.68C0 3.4 3.4 0 17.68 0H33.32ZM13.8125 15.9375H10.0938C9.03125 15.9375 8.81875 16.4475 8.81875 16.9788C8.81875 17.9775 10.0725 22.865 14.6838 29.325C15.9037 31.2742 17.568 32.9066 19.5404 34.0886C21.5128 35.2705 23.7372 35.9684 26.0312 36.125C28.39 36.125 28.6875 35.5938 28.6875 34.68V31.3438C28.6875 30.2812 28.9212 30.0687 29.665 30.0687C30.4088 30.0687 31.1525 30.345 33.3625 32.47C35.8913 34.9987 36.295 36.125 37.7188 36.125H41.4375C42.5 36.125 43.0312 35.5938 42.7337 34.5525C41.942 32.9314 40.8783 31.458 39.5887 30.1963C38.7175 29.155 37.4637 28.0712 37.0175 27.5187C36.5713 26.9662 36.635 26.4775 37.0175 25.8612C38.9867 23.2143 40.6678 20.3649 42.0325 17.3612C42.2663 16.575 42.0325 16.0013 40.9062 16.0013H37.1875C36.8429 15.9823 36.5011 16.0728 36.2111 16.2598C35.921 16.4468 35.6975 16.7208 35.5725 17.0425C34.4202 19.7832 32.8816 22.345 31.0037 24.65C30.1325 25.5213 29.7288 25.7975 29.2613 25.7975C28.7938 25.7975 28.6875 25.5213 28.6875 24.735V17.2975C28.6875 16.3625 28.4112 15.9375 27.625 15.9375H21.7812C21.5423 15.9258 21.3083 16.0083 21.1295 16.1672C20.9507 16.3261 20.8414 16.5488 20.825 16.7875C20.825 17.68 22.185 17.8925 22.3125 20.4212V25.8825C22.3125 27.0938 22.1 27.3063 21.6325 27.3063C20.3575 27.3063 17.3825 22.6737 15.47 17.3825C15.13 16.3625 14.875 15.9375 13.8125 15.9375Z" fill="#9FBFF4"/>
</svg>
