<svg width="51" height="51" viewBox="0 0 51 51" fill="none" xmlns="http://www.w3.org/2000/svg">
<rect width="51" height="51" rx="10" fill="#9FBFF4"/>
<path d="M26 12.875C20.8244 12.875 16.625 16.6549 16.625 21.3125C16.625 28.8125 26 39.125 26 39.125C26 39.125 35.375 28.8125 35.375 21.3125C35.375 16.6549 31.1756 12.875 26 12.875ZM26 26C25.2583 26 24.5333 25.7801 23.9166 25.368C23.2999 24.956 22.8193 24.3703 22.5355 23.6851C22.2516 22.9998 22.1774 22.2458 22.3221 21.5184C22.4667 20.791 22.8239 20.1228 23.3483 19.5983C23.8728 19.0739 24.541 18.7167 25.2684 18.5721C25.9958 18.4274 26.7498 18.5016 27.4351 18.7855C28.1203 19.0693 28.706 19.5499 29.118 20.1666C29.5301 20.7833 29.75 21.5083 29.75 22.25C29.7489 23.2442 29.3535 24.1974 28.6504 24.9005C27.9474 25.6035 26.9942 25.9989 26 26Z" fill="#166FFF"/>
</svg>
