<svg width="245" height="279" viewBox="0 0 245 279" fill="none" xmlns="http://www.w3.org/2000/svg">
<path d="M14.5818 188.414L1.47 202.074L0 249.221L183.719 277.765L185.213 226.892L176.456 207.031L14.5818 188.414Z" fill="white"/>
<path d="M129.789 1.03476C129.789 1.03476 199.796 -1.45357 215.816 45.7067L220.21 183.455L186.645 197.101L183.72 54.3965C183.72 54.3965 182.282 17.1698 129.789 1.03476Z" fill="white"/>
<path d="M188.12 208.273L195.415 218.2V279L245 241.78L242.076 198.346L230.419 188.412L188.12 208.273Z" fill="white"/>
<path d="M177.175 53.4571C177.175 53.4571 174.258 7.55427 107.2 0.109334C107.2 0.109334 47.4033 -4.86122 22.6028 52.2263V181.278L178.645 197.406L177.175 53.4571ZM48.3328 57.8189L150.062 66.1974L149.633 69.8965L47.9354 61.5245L48.3328 57.8189ZM38.4954 75.5089L140.209 83.8808L139.779 87.5865L38.0821 79.2079L38.4954 75.5089ZM124.443 159.247L56.6368 152.735L57.1374 149.029L124.92 155.541L124.443 159.247ZM135.369 143.416L67.571 136.911L68.0636 133.205L135.87 139.731L135.369 143.416ZM159.478 108.056L57.7492 99.6842L58.1863 95.9786L159.891 104.357L159.478 108.056Z" fill="white"/>
</svg>
