<svg width="51" height="51" viewBox="0 0 51 51" fill="none" xmlns="http://www.w3.org/2000/svg">
<rect width="51" height="51" rx="10" fill="#9FBFF4"/>
<path d="M35.375 14.75H34.4375V13.8389C34.4375 13.3344 34.0496 12.9014 33.5451 12.8762C33.4184 12.8701 33.2917 12.8898 33.1728 12.9341C33.0538 12.9784 32.9451 13.0464 32.8533 13.1339C32.7614 13.2215 32.6882 13.3267 32.6383 13.4434C32.5883 13.56 32.5625 13.6856 32.5625 13.8125V14.75H19.4375V13.8389C19.4375 13.3344 19.0496 12.9014 18.5451 12.8762C18.4184 12.8701 18.2917 12.8898 18.1728 12.9341C18.0538 12.9784 17.9451 13.0464 17.8533 13.1339C17.7614 13.2215 17.6882 13.3267 17.6383 13.4434C17.5883 13.56 17.5625 13.6856 17.5625 13.8125V14.75H16.625C15.6304 14.75 14.6766 15.1451 13.9733 15.8484C13.2701 16.5516 12.875 17.5055 12.875 18.5V35.375C12.875 36.3696 13.2701 37.3234 13.9733 38.0267C14.6766 38.7299 15.6304 39.125 16.625 39.125H35.375C36.3696 39.125 37.3234 38.7299 38.0266 38.0267C38.7299 37.3234 39.125 36.3696 39.125 35.375V18.5C39.125 17.5055 38.7299 16.5516 38.0266 15.8484C37.3234 15.1451 36.3696 14.75 35.375 14.75ZM18.9688 35.375C18.6906 35.375 18.4187 35.2926 18.1875 35.138C17.9562 34.9835 17.776 34.7639 17.6695 34.5069C17.5631 34.25 17.5353 33.9672 17.5895 33.6944C17.6438 33.4217 17.7777 33.1711 17.9744 32.9744C18.171 32.7778 18.4216 32.6438 18.6944 32.5896C18.9672 32.5353 19.2499 32.5631 19.5069 32.6696C19.7639 32.776 19.9835 32.9563 20.138 33.1875C20.2925 33.4188 20.375 33.6907 20.375 33.9688C20.375 34.3417 20.2268 34.6994 19.9631 34.9632C19.6994 35.2269 19.3417 35.375 18.9688 35.375ZM18.9688 30.6875C18.6906 30.6875 18.4187 30.6051 18.1875 30.4505C17.9562 30.296 17.776 30.0764 17.6695 29.8194C17.5631 29.5625 17.5353 29.2797 17.5895 29.0069C17.6438 28.7342 17.7777 28.4836 17.9744 28.2869C18.171 28.0903 18.4216 27.9563 18.6944 27.9021C18.9672 27.8478 19.2499 27.8756 19.5069 27.9821C19.7639 28.0885 19.9835 28.2688 20.138 28.5C20.2925 28.7313 20.375 29.0032 20.375 29.2813C20.375 29.6542 20.2268 30.0119 19.9631 30.2757C19.6994 30.5394 19.3417 30.6875 18.9688 30.6875ZM23.6562 35.375C23.3781 35.375 23.1062 35.2926 22.875 35.138C22.6437 34.9835 22.4635 34.7639 22.357 34.5069C22.2506 34.25 22.2228 33.9672 22.277 33.6944C22.3313 33.4217 22.4652 33.1711 22.6619 32.9744C22.8585 32.7778 23.1091 32.6438 23.3819 32.5896C23.6547 32.5353 23.9374 32.5631 24.1944 32.6696C24.4514 32.776 24.671 32.9563 24.8255 33.1875C24.98 33.4188 25.0625 33.6907 25.0625 33.9688C25.0625 34.3417 24.9143 34.6994 24.6506 34.9632C24.3869 35.2269 24.0292 35.375 23.6562 35.375ZM23.6562 30.6875C23.3781 30.6875 23.1062 30.6051 22.875 30.4505C22.6437 30.296 22.4635 30.0764 22.357 29.8194C22.2506 29.5625 22.2228 29.2797 22.277 29.0069C22.3313 28.7342 22.4652 28.4836 22.6619 28.2869C22.8585 28.0903 23.1091 27.9563 23.3819 27.9021C23.6547 27.8478 23.9374 27.8756 24.1944 27.9821C24.4514 28.0885 24.671 28.2688 24.8255 28.5C24.98 28.7313 25.0625 29.0032 25.0625 29.2813C25.0625 29.6542 24.9143 30.0119 24.6506 30.2757C24.3869 30.5394 24.0292 30.6875 23.6562 30.6875ZM28.3438 35.375C28.0656 35.375 27.7937 35.2926 27.5625 35.138C27.3312 34.9835 27.151 34.7639 27.0445 34.5069C26.9381 34.25 26.9103 33.9672 26.9645 33.6944C27.0188 33.4217 27.1527 33.1711 27.3494 32.9744C27.546 32.7778 27.7966 32.6438 28.0694 32.5896C28.3422 32.5353 28.6249 32.5631 28.8819 32.6696C29.1389 32.776 29.3585 32.9563 29.513 33.1875C29.6675 33.4188 29.75 33.6907 29.75 33.9688C29.75 34.3417 29.6018 34.6994 29.3381 34.9632C29.0744 35.2269 28.7167 35.375 28.3438 35.375ZM28.3438 30.6875C28.0656 30.6875 27.7937 30.6051 27.5625 30.4505C27.3312 30.296 27.151 30.0764 27.0445 29.8194C26.9381 29.5625 26.9103 29.2797 26.9645 29.0069C27.0188 28.7342 27.1527 28.4836 27.3494 28.2869C27.546 28.0903 27.7966 27.9563 28.0694 27.9021C28.3422 27.8478 28.6249 27.8756 28.8819 27.9821C29.1389 28.0885 29.3585 28.2688 29.513 28.5C29.6675 28.7313 29.75 29.0032 29.75 29.2813C29.75 29.6542 29.6018 30.0119 29.3381 30.2757C29.0744 30.5394 28.7167 30.6875 28.3438 30.6875ZM28.3438 26C28.0656 26 27.7937 25.9176 27.5625 25.763C27.3312 25.6085 27.151 25.3889 27.0445 25.1319C26.9381 24.875 26.9103 24.5922 26.9645 24.3194C27.0188 24.0467 27.1527 23.7961 27.3494 23.5994C27.546 23.4028 27.7966 23.2688 28.0694 23.2146C28.3422 23.1603 28.6249 23.1881 28.8819 23.2946C29.1389 23.401 29.3585 23.5813 29.513 23.8125C29.6675 24.0438 29.75 24.3157 29.75 24.5938C29.75 24.9667 29.6018 25.3244 29.3381 25.5882C29.0744 25.8519 28.7167 26 28.3438 26ZM33.0312 30.6875C32.7531 30.6875 32.4812 30.6051 32.25 30.4505C32.0187 30.296 31.8385 30.0764 31.732 29.8194C31.6256 29.5625 31.5978 29.2797 31.652 29.0069C31.7063 28.7342 31.8402 28.4836 32.0369 28.2869C32.2335 28.0903 32.4841 27.9563 32.7569 27.9021C33.0297 27.8478 33.3124 27.8756 33.5694 27.9821C33.8264 28.0885 34.046 28.2688 34.2005 28.5C34.355 28.7313 34.4375 29.0032 34.4375 29.2813C34.4375 29.6542 34.2893 30.0119 34.0256 30.2757C33.7619 30.5394 33.4042 30.6875 33.0312 30.6875ZM33.0312 26C32.7531 26 32.4812 25.9176 32.25 25.763C32.0187 25.6085 31.8385 25.3889 31.732 25.1319C31.6256 24.875 31.5978 24.5922 31.652 24.3194C31.7063 24.0467 31.8402 23.7961 32.0369 23.5994C32.2335 23.4028 32.4841 23.2688 32.7569 23.2146C33.0297 23.1603 33.3124 23.1881 33.5694 23.2946C33.8264 23.401 34.046 23.5813 34.2005 23.8125C34.355 24.0438 34.4375 24.3157 34.4375 24.5938C34.4375 24.9667 34.2893 25.3244 34.0256 25.5882C33.7619 25.8519 33.4042 26 33.0312 26ZM37.25 18.9688V19.9063C37.25 20.0306 37.2006 20.1498 37.1127 20.2377C37.0248 20.3257 36.9056 20.375 36.7812 20.375H15.2188C15.0944 20.375 14.9752 20.3257 14.8873 20.2377C14.7994 20.1498 14.75 20.0306 14.75 19.9063V18.5C14.7514 18.0032 14.9494 17.5271 15.3007 17.1757C15.652 16.8244 16.1281 16.6264 16.625 16.625H35.375C35.8719 16.6264 36.348 16.8244 36.6993 17.1757C37.0506 17.5271 37.2486 18.0032 37.25 18.5V18.9688Z" fill="#166FFF"/>
</svg>
